<svg xmlns="http://www.w3.org/2000/svg" viewBox="0 0 100 100">
  <g fill="currentColor">
    <path d="M 52.0,73.0 L 54.0,76.0 L 82.0,76.0 L 83.0,75.0 L 83.0,72.0 L 53.0,72.0 Z"/>
    <path d="M 52.0,49.0 L 54.0,52.0 L 82.0,52.0 L 83.0,51.0 L 83.0,48.0 L 53.0,48.0 Z"/>
    <path d="M 52.0,25.0 L 54.0,28.0 L 82.0,28.0 L 83.0,27.0 L 83.0,24.0 L 53.0,24.0 Z"/>
    <path d="M 39.0,24.0 L 33.0,30.0 L 30.0,45.0 L 27.0,48.0 L 18.0,48.0 L 18.0,51.0 L 19.0,52.0 L 28.0,52.0 L 31.0,56.0 L 31.0,61.0 L 34.0,71.0 L 36.0,74.0 L 42.0,75.0 L 42.0,73.0 L 37.0,68.0 L 34.0,55.0 L 35.0,52.0 L 41.0,52.0 L 42.0,51.0 L 42.0,48.0 L 35.0,48.0 L 34.0,47.0 L 37.0,31.0 L 42.0,27.0 L 42.0,24.0 Z"/>
  </g>
</svg>